<svg width="1176" height="554" viewBox="0 0 1176 554" fill="none" xmlns="http://www.w3.org/2000/svg">
<path d="M141.545 326.025C141.024 320.298 138.707 315.847 134.595 312.672C130.534 309.444 124.73 307.831 117.182 307.831C112.184 307.831 108.02 308.481 104.688 309.783C101.356 311.084 98.8575 312.88 97.1917 315.171C95.5258 317.409 94.6669 319.986 94.6148 322.901C94.5107 325.296 94.9792 327.404 96.0204 329.226C97.1136 331.048 98.6753 332.662 100.706 334.068C102.788 335.421 105.287 336.618 108.202 337.66C111.117 338.701 114.397 339.612 118.041 340.393L131.784 343.516C139.696 345.234 146.672 347.524 152.711 350.388C158.802 353.251 163.903 356.66 168.016 360.617C172.18 364.573 175.33 369.128 177.464 374.282C179.598 379.436 180.692 385.214 180.744 391.617C180.692 401.716 178.141 410.384 173.091 417.62C168.042 424.856 160.78 430.4 151.305 434.252C141.883 438.104 130.508 440.03 117.182 440.03C103.803 440.03 92.1421 438.026 82.1992 434.018C72.2562 430.009 64.5257 423.918 59.0076 415.745C53.4896 407.572 50.6524 397.239 50.4963 384.745H87.509C87.8214 389.899 89.2009 394.194 91.6476 397.63C94.0943 401.065 97.452 403.668 101.721 405.438C106.041 407.208 111.039 408.093 116.713 408.093C121.919 408.093 126.344 407.39 129.988 405.985C133.684 404.579 136.521 402.627 138.499 400.128C140.477 397.63 141.492 394.766 141.545 391.539C141.492 388.52 140.555 385.943 138.733 383.808C136.911 381.622 134.1 379.748 130.3 378.186C126.552 376.572 121.763 375.089 115.932 373.735L99.2219 369.831C85.3747 366.655 74.4687 361.528 66.5039 354.448C58.5391 347.316 54.5828 337.686 54.6348 325.556C54.5828 315.665 57.2377 306.998 62.5996 299.554C67.9615 292.109 75.3797 286.305 84.8541 282.14C94.3285 277.976 105.13 275.893 117.26 275.893C129.649 275.893 140.399 278.002 149.509 282.218C158.671 286.383 165.777 292.24 170.827 299.788C175.876 307.336 178.453 316.082 178.557 326.025H141.545ZM256.253 440.264C243.603 440.264 232.749 437.662 223.691 432.456C214.685 427.25 207.761 420.014 202.92 410.748C198.079 401.43 195.658 390.654 195.658 378.42C195.658 366.135 198.079 355.359 202.92 346.093C207.813 336.775 214.763 329.513 223.769 324.307C232.827 319.101 243.629 316.498 256.175 316.498C267.263 316.498 276.92 318.502 285.145 322.511C293.422 326.519 299.877 332.193 304.51 339.534C309.195 346.822 311.668 355.385 311.928 365.224H276.243C275.514 359.081 273.432 354.266 269.996 350.778C266.612 347.29 262.187 345.546 256.721 345.546C252.296 345.546 248.418 346.796 245.087 349.294C241.755 351.741 239.152 355.385 237.278 360.226C235.456 365.016 234.545 370.95 234.545 378.03C234.545 385.11 235.456 391.096 237.278 395.99C239.152 400.831 241.755 404.501 245.087 407C248.418 409.447 252.296 410.67 256.721 410.67C260.261 410.67 263.385 409.915 266.092 408.405C268.851 406.896 271.115 404.683 272.885 401.768C274.655 398.801 275.774 395.209 276.243 390.992H311.928C311.564 400.883 309.091 409.525 304.51 416.917C299.981 424.309 293.604 430.061 285.379 434.174C277.206 438.234 267.497 440.264 256.253 440.264ZM369.653 369.597V438H331.469V278.08H368.404V340.08H369.731C372.438 332.688 376.863 326.91 383.006 322.745C389.201 318.581 396.775 316.498 405.729 316.498C414.162 316.498 421.502 318.372 427.749 322.12C433.996 325.816 438.837 331.048 442.273 337.816C445.761 344.583 447.479 352.496 447.427 361.554V438H409.243V369.05C409.295 362.387 407.629 357.181 404.245 353.433C400.862 349.685 396.098 347.811 389.956 347.811C385.947 347.811 382.407 348.696 379.336 350.466C376.316 352.184 373.948 354.656 372.23 357.884C370.564 361.111 369.705 365.016 369.653 369.597ZM527.25 440.264C514.652 440.264 503.824 437.688 494.766 432.534C485.761 427.328 478.811 420.092 473.917 410.826C469.076 401.508 466.655 390.706 466.655 378.42C466.655 366.083 469.076 355.281 473.917 346.015C478.811 336.696 485.761 329.46 494.766 324.307C503.824 319.101 514.652 316.498 527.25 316.498C539.848 316.498 550.65 319.101 559.656 324.307C568.714 329.46 575.664 336.696 580.505 346.015C585.398 355.281 587.845 366.083 587.845 378.42C587.845 390.706 585.398 401.508 580.505 410.826C575.664 420.092 568.714 427.328 559.656 432.534C550.65 437.688 539.848 440.264 527.25 440.264ZM527.484 411.451C532.066 411.451 535.944 410.045 539.119 407.234C542.295 404.423 544.715 400.519 546.381 395.521C548.099 390.524 548.958 384.745 548.958 378.186C548.958 371.523 548.099 365.692 546.381 360.695C544.715 355.697 542.295 351.793 539.119 348.982C535.944 346.171 532.066 344.765 527.484 344.765C522.747 344.765 518.739 346.171 515.459 348.982C512.232 351.793 509.759 355.697 508.041 360.695C506.375 365.692 505.542 371.523 505.542 378.186C505.542 384.745 506.375 390.524 508.041 395.521C509.759 400.519 512.232 404.423 515.459 407.234C518.739 410.045 522.747 411.451 527.484 411.451ZM645.589 278.08V438H607.405V278.08H645.589ZM703.705 440.03C696.053 440.03 689.259 438.755 683.325 436.204C677.442 433.601 672.783 429.697 669.347 424.491C665.963 419.233 664.272 412.648 664.272 404.735C664.272 398.072 665.443 392.45 667.785 387.869C670.128 383.288 673.356 379.566 677.468 376.703C681.581 373.839 686.318 371.679 691.68 370.221C697.042 368.712 702.768 367.697 708.859 367.176C715.678 366.551 721.17 365.901 725.335 365.224C729.499 364.495 732.519 363.48 734.393 362.179C736.319 360.825 737.282 358.925 737.282 356.478V356.088C737.282 352.079 735.902 348.982 733.143 346.796C730.384 344.609 726.662 343.516 721.977 343.516C716.928 343.516 712.867 344.609 709.796 346.796C706.724 348.982 704.772 352.001 703.939 355.854L668.723 354.604C669.764 347.316 672.445 340.809 676.765 335.083C681.138 329.304 687.125 324.775 694.725 321.496C702.378 318.164 711.566 316.498 722.289 316.498C729.942 316.498 736.996 317.409 743.451 319.231C749.906 321.001 755.528 323.604 760.317 327.04C765.107 330.424 768.803 334.588 771.406 339.534C774.06 344.479 775.388 350.127 775.388 356.478V438H739.468V421.29H738.531C736.397 425.35 733.664 428.786 730.332 431.597C727.053 434.408 723.174 436.516 718.698 437.922C714.273 439.327 709.275 440.03 703.705 440.03ZM715.496 415.043C719.609 415.043 723.305 414.21 726.584 412.544C729.916 410.878 732.571 408.588 734.549 405.672C736.527 402.705 737.516 399.269 737.516 395.365V383.965C736.423 384.537 735.096 385.058 733.534 385.526C732.024 385.995 730.358 386.437 728.536 386.854C726.714 387.27 724.84 387.635 722.914 387.947C720.988 388.259 719.14 388.546 717.37 388.806C713.778 389.378 710.707 390.263 708.156 391.461C705.657 392.658 703.731 394.22 702.378 396.146C701.076 398.02 700.425 400.258 700.425 402.861C700.425 406.818 701.831 409.837 704.642 411.919C707.505 414.002 711.123 415.043 715.496 415.043ZM798.736 438V318.06H835.826V339.924H837.076C839.262 332.011 842.828 326.129 847.774 322.277C852.719 318.372 858.471 316.42 865.031 316.42C866.801 316.42 868.623 316.55 870.497 316.811C872.371 317.019 874.115 317.357 875.728 317.826V351.012C873.906 350.388 871.512 349.893 868.545 349.529C865.629 349.164 863.026 348.982 860.736 348.982C856.207 348.982 852.12 349.997 848.476 352.027C844.884 354.006 842.047 356.791 839.965 360.383C837.935 363.922 836.92 368.087 836.92 372.876V438H798.736ZM929.471 278.08V438H891.287V278.08H929.471ZM977.123 482.978C972.542 482.978 968.221 482.613 964.161 481.884C960.1 481.208 956.612 480.297 953.697 479.151L962.131 451.431C965.879 452.68 969.262 453.409 972.282 453.617C975.353 453.825 977.982 453.331 980.168 452.134C982.407 450.988 984.125 448.932 985.322 445.965L986.806 442.373L944.171 318.06H984.151L1006.25 403.642H1007.5L1029.91 318.06H1070.12L1024.91 449.479C1022.73 456.038 1019.63 461.816 1015.62 466.814C1011.66 471.863 1006.54 475.82 1000.24 478.683C993.99 481.546 986.285 482.978 977.123 482.978Z" fill="white"/>
<path d="M1098.72 440.264C1093.1 440.264 1088.28 438.286 1084.28 434.33C1080.32 430.374 1078.37 425.584 1078.42 419.962C1078.37 414.444 1080.32 409.733 1084.28 405.829C1088.28 401.872 1093.1 399.894 1098.72 399.894C1104.03 399.894 1108.72 401.872 1112.78 405.829C1116.89 409.733 1118.97 414.444 1119.02 419.962C1118.97 423.71 1117.98 427.12 1116.06 430.191C1114.18 433.263 1111.71 435.709 1108.64 437.531C1105.62 439.353 1102.31 440.264 1098.72 440.264Z" fill="#F2063A"/>
</svg>
